<svg width="169" height="28" viewBox="0 0 169 28" fill="none" xmlns="http://www.w3.org/2000/svg">
<path d="M0.532 26.756L8.128 6.488C8.2 6.272 8.26 6.092 8.308 5.948C8.356 5.78 8.404 5.624 8.452 5.48C8.5 5.336 8.536 5.192 8.56 5.048C8.608 4.904 8.644 4.736 8.668 4.544C8.668 4.352 8.644 4.196 8.596 4.076C8.548 3.932 8.44 3.788 8.272 3.644C8.128 3.524 7.912 3.44 7.624 3.392C7.36 3.32 7.084 3.284 6.796 3.284C6.508 3.284 6.28 3.188 6.112 2.996C5.944 2.804 5.86 2.54 5.86 2.204C5.86 1.916 5.944 1.688 6.112 1.52C6.304 1.352 6.508 1.268 6.724 1.268H13.276L22.996 26.756H18.856L15.76 18.62H6.904L3.844 26.756H0.532ZM11.26 6.56L7.84 16.136H14.932L11.26 6.56ZM28.8182 10.592V12.644C28.9142 12.404 29.1182 12.068 29.4302 11.636C29.7422 11.204 30.1502 10.784 30.6542 10.376C31.1822 9.944 31.8062 9.572 32.5262 9.26C33.2462 8.924 34.0982 8.744 35.0822 8.72C36.8102 8.696 38.1902 9.164 39.2222 10.124C40.2542 11.06 40.7702 12.176 40.7702 13.472V26.756H37.2422V15.236C37.2422 14.3 37.0262 13.472 36.5942 12.752C36.1862 12.008 35.3702 11.648 34.1462 11.672C33.5462 11.696 32.9222 11.912 32.2742 12.32C31.6502 12.704 31.0742 13.196 30.5462 13.796C30.0422 14.42 29.6222 15.116 29.2862 15.884C28.9502 16.628 28.7822 17.372 28.7822 18.116V26.756H25.2542V13.94C25.2542 13.628 25.2422 13.352 25.2182 13.112C25.2182 12.848 25.1942 12.608 25.1462 12.392C25.1222 12.176 25.0502 11.996 24.9302 11.852C24.8342 11.684 24.7022 11.528 24.5342 11.384C24.3662 11.264 24.1622 11.18 23.9222 11.132C23.7062 11.06 23.4902 11.024 23.2742 11.024C22.9142 11.024 22.6382 10.928 22.4462 10.736C22.2782 10.52 22.1942 10.268 22.1942 9.98C22.1942 9.74 22.2782 9.524 22.4462 9.332C22.6382 9.14 22.8542 9.044 23.0942 9.044H26.9102C27.4862 9.044 27.9422 9.248 28.2782 9.656C28.6382 10.04 28.8182 10.352 28.8182 10.592ZM57.0174 18.656C57.0174 17.576 57.0054 16.832 56.9814 16.424C56.9574 15.992 56.9094 15.584 56.8374 15.2C56.6694 14.168 56.2134 13.232 55.4694 12.392C54.7254 11.552 53.7054 11.132 52.4094 11.132C50.8734 11.132 49.7214 11.792 48.9534 13.112C48.2094 14.408 47.8374 16.028 47.8374 17.972C47.8374 18.764 47.9094 19.568 48.0534 20.384C48.2214 21.176 48.4854 21.896 48.8454 22.544C49.2054 23.192 49.6854 23.72 50.2854 24.128C50.8854 24.536 51.6174 24.74 52.4814 24.74C53.1774 24.74 53.8014 24.56 54.3534 24.2C54.9294 23.84 55.4094 23.372 55.7934 22.796C56.1774 22.22 56.4774 21.572 56.6934 20.852C56.9094 20.132 57.0174 19.4 57.0174 18.656ZM60.5454 2.672V26.756H57.0174V24.992C56.8974 25.112 56.7294 25.292 56.5134 25.532C56.3214 25.772 56.0334 26 55.6494 26.216C55.2654 26.456 54.7734 26.66 54.1734 26.828C53.5734 27.02 52.8294 27.116 51.9414 27.116C50.8374 27.116 49.8054 26.912 48.8454 26.504C47.8854 26.096 47.0454 25.496 46.3254 24.704C45.6294 23.912 45.0774 22.952 44.6694 21.824C44.2614 20.696 44.0574 19.412 44.0574 17.972C44.0574 16.772 44.2254 15.62 44.5614 14.516C44.9214 13.388 45.4374 12.392 46.1094 11.528C46.7814 10.664 47.5854 9.98 48.5214 9.476C49.4814 8.948 50.5734 8.684 51.7974 8.684C53.3094 8.684 54.5094 8.96 55.3974 9.512C56.2854 10.04 56.8254 10.448 57.0174 10.736V5.48C57.0174 5.24 57.0054 5.012 56.9814 4.796C56.9814 4.556 56.9574 4.328 56.9094 4.112C56.8854 3.92 56.8134 3.752 56.6934 3.608C56.5974 3.44 56.4654 3.284 56.2974 3.14C56.1294 3.044 55.9254 2.96 55.6854 2.888C55.4694 2.792 55.2534 2.744 55.0374 2.744C54.6774 2.744 54.4014 2.648 54.2094 2.456C54.0414 2.264 53.9574 2.024 53.9574 1.736C53.9574 1.496 54.0414 1.28 54.2094 1.088C54.4014 0.895998 54.6174 0.799998 54.8574 0.799998H58.6374C59.2134 0.799998 59.6694 1.016 60.0054 1.448C60.3654 1.856 60.5454 2.264 60.5454 2.672ZM69.7099 26.756H66.1459V14.192C66.1459 13.352 66.1099 12.728 66.0379 12.32C65.9899 11.912 65.7979 11.6 65.4619 11.384C65.2939 11.312 65.0899 11.24 64.8499 11.168C64.6339 11.096 64.4179 11.06 64.2019 11.06C63.8419 11.06 63.5659 10.952 63.3739 10.736C63.2059 10.52 63.1219 10.268 63.1219 9.98C63.1219 9.74 63.2299 9.524 63.4459 9.332C63.6859 9.14 63.9259 9.044 64.1659 9.044H67.8019C68.3779 9.044 68.8339 9.26 69.1699 9.692C69.5299 10.1 69.7099 10.508 69.7099 10.916V26.756ZM64.9939 3.572C64.9939 2.924 65.2339 2.348 65.7139 1.844C66.2179 1.34 66.8179 1.088 67.5139 1.088C68.1859 1.088 68.7739 1.34 69.2779 1.844C69.7819 2.348 70.0339 2.924 70.0339 3.572C70.0339 4.244 69.7819 4.832 69.2779 5.336C68.7739 5.816 68.1859 6.056 67.5139 6.056C66.8179 6.056 66.2179 5.816 65.7139 5.336C65.2339 4.832 64.9939 4.244 64.9939 3.572ZM79.3135 6.2V21.824C79.3135 22.064 79.3135 22.28 79.3135 22.472C79.3135 22.664 79.3255 22.844 79.3495 23.012C79.3735 23.42 79.4935 23.708 79.7095 23.876C79.9255 24.044 80.1775 24.164 80.4655 24.236C80.7535 24.284 81.0655 24.296 81.4015 24.272C81.7375 24.248 82.0375 24.236 82.3015 24.236C83.5015 24.236 84.6775 24.056 85.8295 23.696C86.9815 23.312 87.9175 22.688 88.6375 21.824C89.3575 21.032 89.9215 20.024 90.3295 18.8C90.7615 17.576 90.9775 15.992 90.9775 14.048C90.9775 12.512 90.8575 11.12 90.6175 9.872C90.3775 8.624 89.9455 7.556 89.3215 6.668C88.7215 5.78 87.8935 5.096 86.8375 4.616C85.8055 4.112 84.4855 3.836 82.8775 3.788C82.7335 3.788 82.5175 3.8 82.2295 3.824C81.9655 3.824 81.7015 3.824 81.4375 3.824C81.1495 3.848 80.8855 3.872 80.6455 3.896C80.4055 3.896 80.2615 3.896 80.2135 3.896C79.9255 3.968 79.7215 4.052 79.6015 4.148C79.5055 4.244 79.4335 4.436 79.3855 4.724C79.3375 4.82 79.3015 4.928 79.2775 5.048C79.2775 5.144 79.2775 5.252 79.2775 5.372C79.2775 5.492 79.2775 5.624 79.2775 5.768C79.3015 5.912 79.3135 6.056 79.3135 6.2ZM73.4815 3.32C73.1215 3.296 72.8575 3.176 72.6895 2.96C72.5455 2.744 72.4735 2.504 72.4735 2.24C72.4735 1.952 72.5695 1.724 72.7615 1.556C72.9535 1.388 73.1575 1.304 73.3735 1.304H79.7455C80.7535 1.304 81.8935 1.34 83.1655 1.412C84.4375 1.46 85.5055 1.556 86.3695 1.7C87.5695 1.916 88.6855 2.312 89.7175 2.888C90.7735 3.44 91.6855 4.22 92.4535 5.228C93.2455 6.236 93.8575 7.472 94.2895 8.936C94.7455 10.376 94.9735 12.08 94.9735 14.048C94.9735 16.784 94.5775 18.968 93.7855 20.6C92.9935 22.208 91.9375 23.48 90.6175 24.416C89.3935 25.28 88.0135 25.88 86.4775 26.216C84.9415 26.576 83.1175 26.756 81.0055 26.756H75.6415V6.308C75.6415 5.228 75.4615 4.484 75.1015 4.076C74.7415 3.668 74.2015 3.416 73.4815 3.32ZM106.571 27.116C105.275 27.116 104.063 26.9 102.935 26.468C101.807 26.036 100.811 25.388 99.9471 24.524C99.1071 23.684 98.4471 22.652 97.9671 21.428C97.4871 20.204 97.2471 18.812 97.2471 17.252C97.2471 15.884 97.4631 14.672 97.8951 13.616C98.3511 12.536 98.9751 11.636 99.7671 10.916C100.583 10.196 101.531 9.644 102.611 9.26C103.715 8.876 104.915 8.684 106.211 8.684C107.147 8.684 108.083 8.864 109.019 9.224C109.979 9.56 110.831 10.052 111.575 10.7C112.343 11.372 112.967 12.2 113.447 13.184C113.927 14.144 114.167 15.248 114.167 16.496V18.548H101.027C101.195 20.348 101.807 21.788 102.863 22.868C103.943 23.924 105.479 24.548 107.471 24.74C107.807 24.788 108.455 24.764 109.415 24.668C110.399 24.572 111.395 24.308 112.403 23.876C112.691 23.756 112.943 23.756 113.159 23.876C113.399 23.996 113.567 24.164 113.663 24.38C113.759 24.62 113.771 24.872 113.699 25.136C113.627 25.4 113.435 25.616 113.123 25.784C112.211 26.288 111.251 26.636 110.243 26.828C109.235 27.02 108.011 27.116 106.571 27.116ZM106.103 10.88C104.927 10.88 103.823 11.276 102.791 12.068C101.783 12.86 101.195 14.18 101.027 16.028H110.495C110.495 14.156 110.039 12.836 109.127 12.068C108.215 11.276 107.207 10.88 106.103 10.88ZM115.045 10.88C114.877 10.88 114.709 10.808 114.541 10.664C114.373 10.496 114.289 10.244 114.289 9.908C114.289 9.62 114.373 9.404 114.541 9.26C114.709 9.116 114.901 9.044 115.117 9.044H119.617L125.269 21.248L130.273 9.044H131.605C132.037 9.044 132.349 9.116 132.541 9.26C132.733 9.404 132.853 9.56 132.901 9.728C132.949 9.92 132.961 10.088 132.937 10.232C132.913 10.352 132.901 10.412 132.901 10.412L126.061 26.756H123.937L117.097 12.212C117.025 12.068 116.941 11.912 116.845 11.744C116.773 11.576 116.665 11.432 116.521 11.312C116.377 11.192 116.185 11.096 115.945 11.024C115.705 10.928 115.405 10.88 115.045 10.88ZM136.721 6.668H134.129C134.177 6.14 134.345 5.54 134.633 4.868C134.921 4.196 135.353 3.572 135.929 2.996C136.505 2.42 137.237 1.94 138.125 1.556C139.013 1.148 140.093 0.943999 141.365 0.943999C142.397 0.943999 143.393 1.088 144.353 1.376C145.313 1.664 146.153 2.096 146.873 2.672C147.593 3.248 148.169 3.968 148.601 4.832C149.033 5.672 149.249 6.644 149.249 7.748C149.249 8.564 149.105 9.308 148.817 9.98C148.529 10.628 148.181 11.192 147.773 11.672C147.365 12.176 146.933 12.572 146.477 12.86C146.021 13.148 145.613 13.328 145.253 13.4C145.637 13.52 146.081 13.724 146.585 14.012C147.089 14.3 147.557 14.696 147.989 15.2C148.421 15.704 148.793 16.328 149.105 17.072C149.417 17.816 149.573 18.692 149.573 19.7C149.573 20.924 149.309 22.004 148.781 22.94C148.253 23.876 147.545 24.644 146.657 25.244C145.769 25.868 144.737 26.336 143.561 26.648C142.385 26.96 141.161 27.116 139.889 27.116C138.737 27.116 137.597 26.96 136.469 26.648C135.365 26.36 134.513 25.976 133.913 25.496V22.652C134.609 23.204 135.497 23.636 136.577 23.948C137.681 24.26 138.629 24.416 139.421 24.416C140.117 24.416 140.825 24.344 141.545 24.2C142.289 24.056 142.949 23.792 143.525 23.408C144.125 23 144.617 22.46 145.001 21.788C145.385 21.116 145.577 20.24 145.577 19.16C145.577 17.936 145.265 16.94 144.641 16.172C144.017 15.404 143.273 14.948 142.409 14.804C142.121 14.756 141.713 14.72 141.185 14.696C140.681 14.648 140.429 14.624 140.429 14.624C140.069 14.624 139.793 14.504 139.601 14.264C139.433 14 139.349 13.712 139.349 13.4C139.349 13.088 139.433 12.8 139.601 12.536C139.793 12.272 140.069 12.14 140.429 12.14C140.429 12.14 140.609 12.14 140.969 12.14C141.329 12.116 141.665 12.08 141.977 12.032C142.313 11.984 142.673 11.888 143.057 11.744C143.465 11.6 143.837 11.372 144.173 11.06C144.485 10.748 144.749 10.34 144.965 9.836C145.205 9.308 145.325 8.624 145.325 7.784C145.325 6.344 144.917 5.264 144.101 4.544C143.285 3.824 142.193 3.464 140.825 3.464C139.769 3.464 138.869 3.8 138.125 4.472C137.405 5.12 136.937 5.852 136.721 6.668ZM159.941 27.116C158.453 27.116 157.181 26.768 156.125 26.072C155.069 25.376 154.217 24.428 153.569 23.228C152.897 22.028 152.405 20.624 152.093 19.016C151.805 17.408 151.661 15.704 151.661 13.904C151.661 12.392 151.793 10.868 152.057 9.332C152.345 7.772 152.813 6.38 153.461 5.156C154.085 3.908 154.925 2.9 155.981 2.132C157.037 1.34 158.345 0.943999 159.905 0.943999C161.417 0.943999 162.701 1.328 163.757 2.096C164.837 2.864 165.701 3.86 166.349 5.084C167.021 6.308 167.501 7.7 167.789 9.26C168.101 10.796 168.257 12.344 168.257 13.904C168.257 15.512 168.101 17.108 167.789 18.692C167.501 20.252 167.033 21.656 166.385 22.904C165.713 24.176 164.849 25.196 163.793 25.964C162.737 26.732 161.453 27.116 159.941 27.116ZM155.513 13.904C155.513 15.128 155.573 16.376 155.693 17.648C155.837 18.896 156.077 20.036 156.413 21.068C156.749 22.1 157.205 22.94 157.781 23.588C158.357 24.236 159.089 24.56 159.977 24.56C160.865 24.56 161.597 24.224 162.173 23.552C162.749 22.856 163.205 21.98 163.541 20.924C163.877 19.892 164.105 18.752 164.225 17.504C164.369 16.232 164.441 15.032 164.441 13.904C164.441 12.584 164.357 11.3 164.189 10.052C164.021 8.804 163.757 7.688 163.397 6.704C163.037 5.72 162.569 4.928 161.993 4.328C161.417 3.728 160.721 3.428 159.905 3.428C159.017 3.428 158.285 3.74 157.709 4.364C157.133 4.964 156.689 5.756 156.377 6.74C156.041 7.724 155.813 8.84 155.693 10.088C155.573 11.336 155.513 12.608 155.513 13.904Z" fill="black"/>
</svg>
